HIERARCHY
ROOT Hips
{
  OFFSET 30.0103 92.7176 23.524
  CHANNELS 6 Xposition Yposition Zposition Zrotation Xrotation Yrotation
  JOINT spine
  {
    OFFSET 0 7.4756 0.429885
    CHANNELS 3 Zrotation Xrotation Yrotation
    JOINT spine1
    {
      OFFSET 0 9.92301 0
      CHANNELS 3 Zrotation Xrotation Yrotation
      JOINT spine2
      {
        OFFSET 0 9.50804 0
        CHANNELS 3 Zrotation Xrotation Yrotation
        JOINT Neck
        {
          OFFSET 0 24.4111 1.16384
          CHANNELS 3 Zrotation Xrotation Yrotation
          JOINT Head
          {
            OFFSET 0 7.37523 0
            CHANNELS 3 Zrotation Xrotation Yrotation
            End Site
            {
              OFFSET 0 17.8522 -5.88741
            }
          }
        }
        JOINT RightShoulder
        {
          OFFSET -4.00356 10.2679 -0.557468
          CHANNELS 3 Zrotation Xrotation Yrotation
          JOINT RightArm
          {
            OFFSET 0 13.4673 0
            CHANNELS 3 Zrotation Xrotation Yrotation
            JOINT RightArmRoll
            {
              OFFSET 0 6.79858 0
              CHANNELS 3 Zrotation Xrotation Yrotation
              JOINT RightForeArm
              {
                OFFSET 0 19.8018 0
                CHANNELS 3 Zrotation Xrotation Yrotation
                JOINT RightForeArmRoll
                {
                  OFFSET 0 7.62906 0
                  CHANNELS 3 Zrotation Xrotation Yrotation
                  JOINT RightHand
                  {
                    OFFSET 0 15.3098 0
                    CHANNELS 3 Zrotation Xrotation Yrotation
                    End Site
                    {
                      OFFSET 0 0 0
                    }
                  }
                }
              }
            }
          }
        }
        JOINT LeftShoulder
        {
          OFFSET 4.00356 10.2679 -0.557468
          CHANNELS 3 Zrotation Xrotation Yrotation
          JOINT LeftArm
          {
            OFFSET 0 13.4673 0
            CHANNELS 3 Zrotation Xrotation Yrotation
            JOINT LeftArmRoll
            {
              OFFSET 0 6.79858 0
              CHANNELS 3 Zrotation Xrotation Yrotation
              JOINT LeftForeArm
              {
                OFFSET 0 19.8018 0
                CHANNELS 3 Zrotation Xrotation Yrotation
                JOINT LeftForeArmRoll
                {
                  OFFSET 0 7.62906 0
                  CHANNELS 3 Zrotation Xrotation Yrotation
                  JOINT LeftHand
                  {
                    OFFSET 0 15.3098 0
                    CHANNELS 3 Zrotation Xrotation Yrotation
                    End Site
                    {
                      OFFSET 0 0 0
                    }
                  }
                }
              }
            }
          }
        }
      }
    }
  }
  JOINT RightUpLeg
  {
    OFFSET -6.62609 -1.21505 -1.01927
    CHANNELS 3 Zrotation Xrotation Yrotation
    JOINT RightUpLegRoll
    {
      OFFSET 0 17.9517 0
      CHANNELS 3 Zrotation Xrotation Yrotation
      JOINT RightLeg
      {
        OFFSET 0 -22.2304 0
        CHANNELS 3 Zrotation Xrotation Yrotation
        JOINT RightLegRoll
        {
          OFFSET 0 22.3032 0
          CHANNELS 3 Zrotation Xrotation Yrotation
          JOINT RightFoot
          {
            OFFSET 0 18.5636 0
            CHANNELS 3 Zrotation Xrotation Yrotation
            JOINT RightToeBase
            {
              OFFSET 0 15.5183 0
              CHANNELS 3 Zrotation Xrotation Yrotation
              End Site
              {
                OFFSET 0.00657761 7.51538 -0.866263
              }
            }
          }
        }
      }
    }
  }
  JOINT LeftUpLeg
  {
    OFFSET 6.62609 -1.21505 -1.01927
    CHANNELS 3 Zrotation Xrotation Yrotation
    JOINT LeftUpLegRoll
    {
      OFFSET 0 17.9518 0
      CHANNELS 3 Zrotation Xrotation Yrotation
      JOINT LeftLeg
      {
        OFFSET 0 22.2303 0
        CHANNELS 3 Zrotation Xrotation Yrotation
        JOINT LeftLegRoll
        {
          OFFSET 0 22.5093 0
          CHANNELS 3 Zrotation Xrotation Yrotation
          JOINT LeftFoot
          {
            OFFSET 0 18.3575 0
            CHANNELS 3 Zrotation Xrotation Yrotation
            JOINT LeftToeBase
            {
              OFFSET 0 15.5183 0
              CHANNELS 3 Zrotation Xrotation Yrotation
              End Site
              {
                OFFSET -0.029478 7.51539 -0.866263
              }
            }
          }
        }
      }
    }
  }
}
MOTION
Frames: 5
Frame Time: 0.00208333
39.1 92.9429 17.5893 2.44682 -1.97465 38.8704 0.34343 0.108779 0.563528 0.682989 4.22359 1.08183 0.671044 5.86848 1.07157 -19.3167 -17.509 -0.264495 9.64476 10.1578 -0.0673501 56.8222 -2.07786 -1.09079 160.664 40.4283 -91.8364 -7.96731e-006 8.57309e-006 4.75003e-006 53.0864 7.75956 2.409 -1.66471e-006 -5.95936e-007 -3.00304 8.03017 -4.95137 0.697638 -71.9344 -2.96123 2.93451 -84.5952 51.8839 24.7669 -2.28716e-005 -3.55401e-006 4.69745e-006 -25.0033 62.4909 19.1408 -5.09214e-007 8.63053e-006 3.0028 -8.02891 -4.95154 -0.69769 178.797 2.98037 -2.39402 -180 7.01506e-015 178.759 -177.02 19.032 178.557 -4.35236e-006 -3.06255e-006 0.553914 -21.7317 71.2917 22.7674 8.16429 27.1415 -0.933111 179.787 5.49497 6.17969 4.54188e-006 -4.6773e-006 -1.08242 2.26013 -13.4515 0.759347 1.02514e-006 7.58868e-007 -0.0504752 17.9268 66.7343 -18.5416 -8.13656 25.2332 3.48709 
39.0485 92.9343 17.6175 2.43817 -1.958 39.0783 0.344398 0.109262 0.566988 0.68609 4.22459 1.08853 0.674069 5.86948 1.07823 -19.3057 -17.5001 -0.254138 9.64189 10.1666 -0.0593827 56.8382 -2.08542 -1.09723 160.663 40.4378 -91.7811 -7.96731e-006 8.57309e-006 4.75003e-006 53.067 7.72182 2.42403 -1.66471e-006 -5.95936e-007 -3.00304 8.03017 -4.95137 0.697638 -71.9356 -2.9574 2.9328 -84.4802 52.0251 24.9317 -2.28716e-005 -3.55401e-006 4.69745e-006 -25.1259 62.4458 19.1898 -5.09214e-007 8.63053e-006 3.0028 -8.02891 -4.95154 -0.69769 178.82 2.97188 -2.38215 -180 7.01506e-015 178.759 -177.056 19.058 178.562 -4.35236e-006 -3.06255e-006 0.554779 -21.7452 71.3034 22.7817 8.16379 27.1463 -0.907506 179.79 5.56355 6.21672 4.54188e-006 -4.6773e-006 -1.08244 2.31723 -13.4824 0.768023 1.02514e-006 7.58868e-007 -0.0485485 17.9163 66.7148 -18.5266 -8.1366 25.2337 3.48638 
38.9896 92.9221 17.6241 2.42895 -1.94105 39.2853 0.345494 0.109653 0.570499 0.689527 4.22541 1.09532 0.67743 5.8703 1.08497 -19.2982 -17.492 -0.243936 9.64102 10.1759 -0.0514357 56.8516 -2.09353 -1.10376 160.669 40.4481 -91.729 -7.96731e-006 8.57309e-006 4.75003e-006 53.0522 7.67283 2.44452 -1.66471e-006 -5.95936e-007 -3.00304 8.03017 -4.95137 0.697638 -71.9402 -2.95317 2.93117 -84.361 52.166 25.0982 -2.28716e-005 -3.55401e-006 4.69745e-006 -25.248 62.4069 19.2415 -5.09214e-007 8.63053e-006 3.0028 -8.02891 -4.95154 -0.69769 178.842 2.96779 -2.37089 -180 7.01506e-015 178.759 -177.09 19.0913 178.567 -4.35236e-006 -3.06255e-006 0.556009 -21.7612 71.3172 22.7986 8.16308 27.1473 -0.877994 179.792 5.63359 6.25348 4.54188e-006 -4.6773e-006 -1.08248 2.37432 -13.5157 0.776808 1.02514e-006 7.58868e-007 -0.0466963 17.9055 66.695 -18.5114 -8.13663 25.2343 3.48561 
38.96 92.9188 17.6571 2.41929 -1.92391 39.4916 0.346679 0.109981 0.574044 0.6932 4.22611 1.10216 0.681026 5.87099 1.09176 -19.2931 -17.4846 -0.233841 9.64157 10.1856 -0.0435026 56.8632 -2.10204 -1.11035 160.68 40.4588 -91.679 -7.96731e-006 8.57309e-006 4.75003e-006 53.0407 7.61598 2.46883 -1.66471e-006 -5.95936e-007 -3.00304 8.03017 -4.95137 0.697638 -71.947 -2.94867 2.92959 -84.2392 52.3066 25.2664 -2.28716e-005 -3.55401e-006 4.69745e-006 -25.3697 62.3723 19.295 -5.09214e-007 8.63053e-006 3.0028 -8.02891 -4.95154 -0.69769 178.864 2.96676 -2.36007 -180 7.01506e-015 178.759 -177.123 19.1296 178.572 -4.35236e-006 -3.06255e-006 0.557493 -21.7789 71.3325 22.8173 8.16223 27.1459 -0.845748 179.794 5.70464 6.29005 4.54188e-006 -4.6773e-006 -1.08252 2.4314 -13.5507 0.78567 1.02514e-006 7.58868e-007 -0.0448964 17.8947 66.675 -18.496 -8.13668 25.2349 3.48481 
38.9325 92.9192 17.714 2.40935 -1.90667 39.6975 0.347914 0.110271 0.57761 0.697008 4.22673 1.10903 0.684757 5.87161 1.09858 -19.2894 -17.4775 -0.223809 9.64291 10.1954 -0.0355774 56.8736 -2.11076 -1.11698 160.694 40.4698 -91.6303 -7.96731e-006 8.57309e-006 4.75003e-006 53.031 7.55463 2.49532 -1.66471e-006 -5.95936e-007 -3.00304 8.03017 -4.95137 0.697638 -71.9552 -2.94401 2.92804 -84.1166 52.4469 25.436 -2.28716e-005 -3.55401e-006 4.69745e-006 -25.4911 62.34 19.3494 -5.09214e-007 8.63053e-006 3.0028 -8.02891 -4.95154 -0.69769 178.885 2.96749 -2.34949 -180 7.01506e-015 178.759 -177.155 19.1708 178.576 -4.35236e-006 -3.06255e-006 0.559123 -21.7976 71.3486 22.8371 8.16129 27.143 -0.811942 179.796 5.77627 6.32653 4.54188e-006 -4.6773e-006 -1.08256 2.48848 -13.5866 0.794577 1.02514e-006 7.58868e-007 -0.0431262 17.8838 66.6548 -18.4805 -8.13672 25.2355 3.48399 
